<?xml version="1.0" encoding="UTF-8"?>
<svg version="1.1" xmlns="http://www.w3.org/2000/svg" width="32" height="32">
<path d="M0 0 C10.56 0 21.12 0 32 0 C32 10.56 32 21.12 32 32 C21.44 32 10.88 32 0 32 C0 21.44 0 10.88 0 0 Z " fill="#DADDDF" transform="translate(0,0)"/>
<path d="M0 0 C10.56 0 21.12 0 32 0 C32 10.56 32 21.12 32 32 C21.44 32 10.88 32 0 32 C0 21.44 0 10.88 0 0 Z M3 4 C3 11.92 3 19.84 3 28 C11.58 28 20.16 28 29 28 C29 20.08 29 12.16 29 4 C20.42 4 11.84 4 3 4 Z " fill="#122333" transform="translate(0,0)"/>
<path d="M0 0 C7.92 0 15.84 0 24 0 C24 0.99 24 1.98 24 3 C22.68 3 21.36 3 20 3 C19.67 4.98 19.34 6.96 19 9 C18.01 8.34 17.02 7.68 16 7 C15.34 7.66 14.68 8.32 14 9 C13.67 7.02 13.34 5.04 13 3 C10.03 3 7.06 3 4 3 C4 6.96 4 10.92 4 15 C2.02 15.99 2.02 15.99 0 17 C0 11.39 0 5.78 0 0 Z " fill="#F7F8F7" transform="translate(4,5)"/>
<path d="M0 0 C1.9375 0.375 1.9375 0.375 4 1 C4.33 1.66 4.66 2.32 5 3 C5.66 2.34 6.32 1.68 7 1 C7.66 1.66 8.32 2.32 9 3 C9.33 2.01 9.66 1.02 10 0 C10.99 0 11.98 0 13 0 C12.5547115 5.27315333 11.91626837 10.01770224 10 15 C9.01 13.68 8.02 12.36 7 11 C6.34 12.32 5.68 13.64 5 15 C4.34 15 3.68 15 3 15 C2.49564306 13.0636296 1.99666126 11.12585854 1.5 9.1875 C1.2215625 8.10855469 0.943125 7.02960937 0.65625 5.91796875 C0 3 0 3 0 0 Z " fill="#1F3040" transform="translate(14,9)"/>
<path d="M0 0 C1.32 0 2.64 0 4 0 C4.05386629 2.12472576 4.09273071 4.24983652 4.125 6.375 C4.14820313 7.55835938 4.17140625 8.74171875 4.1953125 9.9609375 C4 13 4 13 2 15 C-0.625 15.125 -0.625 15.125 -3 15 C-2.67 13.68 -2.34 12.36 -2 11 C-1.34 11 -0.68 11 0 11 C0 7.37 0 3.74 0 0 Z " fill="#0E1E2F" transform="translate(8,9)"/>
<path d="M0 0 C0.33 0 0.66 0 1 0 C1 3.63 1 7.26 1 11 C1.66 11 2.32 11 3 11 C2.67 12.32 2.34 13.64 2 15 C0.35 15 -1.3 15 -3 15 C-2.67 13.68 -2.34 12.36 -2 11 C-1.34 11 -0.68 11 0 11 C0 7.37 0 3.74 0 0 Z " fill="#35414F" transform="translate(8,9)"/>
<path d="M0 0 C0.99 0 1.98 0 3 0 C2.67 1.98 2.34 3.96 2 6 C1.01 5.67 0.02 5.34 -1 5 C-0.67 3.35 -0.34 1.7 0 0 Z " fill="#142738" transform="translate(24,9)"/>
</svg>
